<svg xmlns="http://www.w3.org/2000/svg" width="55.3" height="54.958" viewBox="0 0 55.3 54.958">
  <g id="Daily" transform="translate(-325.453 -400.521)">
    <path id="Path_11" data-name="Path 11" d="M335.45,435.711l-.919-.919-2.958,2.957-.759-.759-.919.919,1.678,1.679Z" fill="#313133"/>
    <rect id="Rectangle_1" data-name="Rectangle 1" width="5.458" height="1.3" transform="translate(337.901 435.753)" fill="#313133"/>
    <rect id="Rectangle_2" data-name="Rectangle 2" width="8.917" height="1.3" transform="translate(334.442 439.854)" fill="#313133"/>
    <rect id="Rectangle_3" data-name="Rectangle 3" width="13.559" height="1.3" transform="translate(329.8 443.955)" fill="#313133"/>
    <rect id="Rectangle_4" data-name="Rectangle 4" width="13.559" height="1.3" transform="translate(329.8 448.056)" fill="#313133"/>
    <path id="Path_12" data-name="Path 12" d="M362.745,411.032a.648.648,0,0,0-.774-.5,29.215,29.215,0,0,1-13.085,0,.65.65,0,0,0-.279,1.269,30.485,30.485,0,0,0,13.643,0A.649.649,0,0,0,362.745,411.032Z" fill="#313133"/>
    <path id="Path_13" data-name="Path 13" d="M374.9,436.223,364.2,430.466a3.1,3.1,0,0,1-1.626-2.722v-3.43a12.3,12.3,0,0,0,1.97-4.473A2.253,2.253,0,0,0,366.6,417.5v-.931a2.369,2.369,0,0,0-1.285-2.146c-.013-.389-.05-.778-.1-1.166,1.245-.4,2-.73,2.076-.766l.522-.232-1.02-3.406-1.192.385a12.287,12.287,0,0,0-6.175-6.77,2.141,2.141,0,0,0-2.041-1.949h-3.919a2.141,2.141,0,0,0-2.041,1.948,12.271,12.271,0,0,0-6.17,6.772l-1.2-.385-1.02,3.4.522.232a22.286,22.286,0,0,0,2.093.771c-.045.389-.1.779-.11,1.159a2.368,2.368,0,0,0-1.292,2.148v.931a2.252,2.252,0,0,0,2.053,2.339,12.3,12.3,0,0,0,1.974,4.482v3.417a3.043,3.043,0,0,1-1.05,2.285l-5.338-5.337H326.8a1.345,1.345,0,0,0-1.344,1.343v28.1a1.345,1.345,0,0,0,1.344,1.343h19.962a1.344,1.344,0,0,0,1.344-1.343v-2.6l1.839,2.75,1.082-.722L348.1,449.2v-9.819l6.445,14.807h1.766l9.338-21.468,1.5.805.429,5.7-4.889,2.415,2.73,3.581-5.576,8.342,1.081.722,6.091-9.114-2.336-3.064,4.262-2.105-.434-5.751,5.775,3.109a9.821,9.821,0,0,1,5.172,8.658v7.906h1.3v-7.906A11.118,11.118,0,0,0,374.9,436.223ZM344.928,410.5l1.128.363.209-.6a11.331,11.331,0,0,1,5.135-6.341v2.6a.65.65,0,0,0,1.3,0v-3.733a.9.9,0,0,1,.771-.973h3.919a.891.891,0,0,1,.771.973v3.733a.65.65,0,1,0,1.3,0v-2.6a11.34,11.34,0,0,1,5.14,6.34l.209.6,1.124-.363.305,1.02a30.059,30.059,0,0,1-21.617,0Zm1.452,8.043a.952.952,0,0,1-.824-1.04v-.931a1,1,0,0,1,.733-1.03l.551-.1v-.557c0-.408.028-.823.07-1.244a31.018,31.018,0,0,0,17.043,0,12.285,12.285,0,0,1,.072,1.262v.557l.55.085a1,1,0,0,1,.727,1.031v.931a.953.953,0,0,1-.825,1.04H363.31v.65c0,1.743-2.871,8.144-7.886,8.144s-7.877-6.4-7.877-8.144v-.65Zm9.044,10.094a8.1,8.1,0,0,0,5.854-2.711v1.819a4.379,4.379,0,0,0,.629,2.261l-6.475,5.811L348.947,430a4.35,4.35,0,0,0,.636-2.262v-1.807A8.083,8.083,0,0,0,355.424,428.636Zm1.252,12.587H354.1l-1.155-1.741,2.483-1.96,2.428,1.916Zm-14.4-14.317,3.6,3.6-3.6-.031Zm-15.523,27.23.044-28.149h14.179v4.484a1.345,1.345,0,0,0,1.343,1.344H346.8l-.043,22.365Zm21.35-23.124.011-.01,6.31,5.656-4.532,3.579-1.789-4.113Zm3.82,9.278,1.144,1.726-.684,3.938-1.951-4.486Zm3.508,12.67-2.1-4.837.972-5.6h2.17l1,5.747Zm2.982-6.855-.711-4.078,1.179-1.781,1.549,1.222Zm2.553-5.87-4.529-3.573,6.3-5.658a4.429,4.429,0,0,0,.845.606l.917.493Z" fill="#313133"/>
  </g>
</svg>
