<?xml version="1.0" standalone="no"?>
<!DOCTYPE svg PUBLIC "-//W3C//DTD SVG 20010904//EN"
 "http://www.w3.org/TR/2001/REC-SVG-20010904/DTD/svg10.dtd">
<svg version="1.0" xmlns="http://www.w3.org/2000/svg"
 width="8000.000000pt" height="4444.000000pt" viewBox="0 0 8000.000000 4444.000000"
 preserveAspectRatio="xMidYMid meet">

<g transform="translate(0.000000,4444.000000) scale(0.100000,-0.100000)"
fill="#000000" stroke="none">
<path d="M68118 39653 c6 -2 18 -2 25 0 6 3 1 5 -13 5 -14 0 -19 -2 -12 -5z"/>
<path d="M67578 39603 c7 -3 16 -2 19 1 4 3 -2 6 -13 5 -11 0 -14 -3 -6 -6z"/>
<path d="M67488 39583 c7 -3 16 -2 19 1 4 3 -2 6 -13 5 -11 0 -14 -3 -6 -6z"/>
<path d="M67098 39503 c7 -3 16 -2 19 1 4 3 -2 6 -13 5 -11 0 -14 -3 -6 -6z"/>
<path d="M66788 39433 c7 -3 16 -2 19 1 4 3 -2 6 -13 5 -11 0 -14 -3 -6 -6z"/>
<path d="M68890 39213 c0 -6 8 -17 18 -24 16 -13 16 -13 2 6 -8 11 -16 22 -17
24 -2 2 -3 0 -3 -6z"/>
<path d="M68980 39055 c0 -5 5 -17 10 -25 5 -8 10 -10 10 -5 0 6 -5 17 -10 25
-5 8 -10 11 -10 5z"/>
<path d="M65330 39030 c-8 -5 -10 -10 -5 -10 6 0 17 5 25 10 8 5 11 10 5 10
-5 0 -17 -5 -25 -10z"/>
<path d="M69061 38804 c0 -11 3 -14 6 -6 3 7 2 16 -1 19 -3 4 -6 -2 -5 -13z"/>
<path d="M69071 38754 c0 -11 3 -14 6 -6 3 7 2 16 -1 19 -3 4 -6 -2 -5 -13z"/>
<path d="M69082 38685 c0 -16 2 -22 5 -12 2 9 2 23 0 30 -3 6 -5 -1 -5 -18z"/>
<path d="M69091 38604 c0 -11 3 -14 6 -6 3 7 2 16 -1 19 -3 4 -6 -2 -5 -13z"/>
<path d="M69132 38115 c0 -16 2 -22 5 -12 2 9 2 23 0 30 -3 6 -5 -1 -5 -18z"/>
<path d="M69143 37985 c0 -22 2 -30 4 -17 2 12 2 30 0 40 -3 9 -5 -1 -4 -23z"/>
<path d="M69153 37835 c0 -27 2 -38 4 -22 2 15 2 37 0 50 -2 12 -4 0 -4 -28z"/>
<path d="M69162 37685 c0 -16 2 -22 5 -12 2 9 2 23 0 30 -3 6 -5 -1 -5 -18z"/>
<path d="M69172 37500 c0 -14 2 -19 5 -12 2 6 2 18 0 25 -3 6 -5 1 -5 -13z"/>
<path d="M64948 36905 c-534 -73 -1007 -334 -1336 -738 -477 -584 -599 -1378
-321 -2080 263 -662 857 -1141 1573 -1269 148 -26 473 -31 626 -9 550 79 1040
367 1370 806 211 281 345 606 395 956 19 135 19 416 0 561 -61 461 -271 879
-606 1203 -334 324 -743 518 -1209 575 -114 14 -373 11 -492 -5z m574 -495
c625 -133 1104 -608 1240 -1233 19 -88 22 -132 22 -322 0 -190 -3 -234 -22
-322 -200 -919 -1135 -1467 -2027 -1188 -482 150 -867 527 -1025 1004 -112
335 -115 671 -9 993 138 420 450 773 845 953 141 65 327 116 504 139 88 11
377 -3 472 -24z"/>
<path d="M59009 34653 c-13 -16 -12 -17 4 -4 9 7 17 15 17 17 0 8 -8 3 -21
-13z"/>
<path d="M58925 34534 c-9 -15 -12 -23 -6 -20 11 7 35 46 28 46 -3 0 -12 -12
-22 -26z"/>
<path d="M58835 34404 c-9 -15 -12 -23 -6 -20 11 7 35 46 28 46 -3 0 -12 -12
-22 -26z"/>
<path d="M58609 34063 c-13 -16 -12 -17 4 -4 16 13 21 21 13 21 -2 0 -10 -8
-17 -17z"/>
<path d="M58532 33865 c0 -16 2 -22 5 -12 2 9 2 23 0 30 -3 6 -5 -1 -5 -18z"/>
<path d="M58532 33760 c0 -14 2 -19 5 -12 2 6 2 18 0 25 -3 6 -5 1 -5 -13z"/>
<path d="M58820 33396 c0 -2 8 -10 18 -17 15 -13 16 -12 3 4 -13 16 -21 21
-21 13z"/>
<path d="M58940 33306 c0 -2 8 -10 18 -17 15 -13 16 -12 3 4 -13 16 -21 21
-21 13z"/>
<path d="M59900 32586 c0 -2 8 -10 18 -17 15 -13 16 -12 3 4 -13 16 -21 21
-21 13z"/>
<path d="M60100 32436 c0 -2 8 -10 18 -17 15 -13 16 -12 3 4 -13 16 -21 21
-21 13z"/>
<path d="M60220 32346 c0 -2 8 -10 18 -17 15 -13 16 -12 3 4 -13 16 -21 21
-21 13z"/>
<path d="M58946 32229 c-304 -35 -634 -177 -936 -403 -229 -172 -539 -515
-666 -738 -104 -184 -175 -416 -204 -663 -24 -214 -7 -553 40 -825 23 -126 92
-422 97 -416 2 2 -5 50 -16 107 -45 235 -51 494 -17 685 47 260 166 466 410
710 137 136 262 230 408 305 241 123 483 166 696 123 106 -21 260 -98 338
-168 125 -113 214 -279 254 -476 19 -91 21 -128 17 -275 -5 -185 -23 -292 -78
-458 -37 -114 -150 -346 -221 -452 -179 -270 -525 -469 -986 -565 -148 -31
-133 -40 26 -15 552 87 982 243 1306 473 99 70 277 244 338 332 450 638 602
1439 384 2013 -64 166 -152 301 -273 418 -198 191 -433 286 -723 293 -69 2
-156 0 -194 -5z"/>
<path d="M60435 32180 c10 -11 20 -20 23 -20 3 0 -3 9 -13 20 -10 11 -20 20
-23 20 -3 0 3 -9 13 -20z"/>
<path d="M60755 31940 c10 -11 20 -20 23 -20 3 0 -3 9 -13 20 -10 11 -20 20
-23 20 -3 0 3 -9 13 -20z"/>
<path d="M60950 31796 c0 -2 8 -10 18 -17 15 -13 16 -12 3 4 -13 16 -21 21
-21 13z"/>
<path d="M61060 31716 c0 -2 8 -10 18 -17 15 -13 16 -12 3 4 -13 16 -21 21
-21 13z"/>
<path d="M61150 31646 c0 -2 8 -10 18 -17 15 -13 16 -12 3 4 -13 16 -21 21
-21 13z"/>
<path d="M61390 31466 c0 -2 8 -10 18 -17 15 -13 16 -12 3 4 -13 16 -21 21
-21 13z"/>
<path d="M61710 31226 c0 -2 8 -10 18 -17 15 -13 16 -12 3 4 -13 16 -21 21
-21 13z"/>
<path d="M62030 30986 c0 -2 8 -10 18 -17 15 -13 16 -12 3 4 -13 16 -21 21
-21 13z"/>
<path d="M62350 30746 c0 -2 8 -10 18 -17 15 -13 16 -12 3 4 -13 16 -21 21
-21 13z"/>
<path d="M63200 30106 c0 -2 8 -10 18 -17 15 -13 16 -12 3 4 -13 16 -21 21
-21 13z"/>
<path d="M63400 29956 c0 -2 8 -10 18 -17 15 -13 16 -12 3 4 -13 16 -21 21
-21 13z"/>
<path d="M63720 29716 c0 -2 8 -10 18 -17 15 -13 16 -12 3 4 -13 16 -21 21
-21 13z"/>
<path d="M62685 29488 c-167 -17 -384 -83 -580 -178 -354 -171 -736 -518 -982
-892 -139 -211 -217 -444 -248 -736 -36 -337 -1 -709 105 -1134 41 -163 99
-353 105 -346 2 2 -7 40 -21 83 -64 210 -98 441 -98 675 -1 422 105 664 433
990 243 243 494 382 778 431 38 7 119 10 192 7 210 -8 351 -69 496 -213 91
-92 134 -159 182 -285 52 -139 66 -245 60 -445 -8 -245 -52 -420 -168 -664
-181 -382 -414 -583 -842 -725 -133 -45 -401 -106 -464 -106 -18 0 -33 -4 -33
-8 0 -9 45 -4 245 24 445 62 889 210 1186 394 152 94 318 238 422 365 52 64
158 236 226 367 185 358 277 699 286 1063 7 302 -39 527 -157 757 -212 416
-621 625 -1123 576z"/>
<path d="M13075 29393 c-41 -4 -171 -24 -285 -43 -89 -15 -274 -64 -400 -106
-401 -134 -738 -354 -890 -581 -66 -99 -75 -135 -61 -249 50 -417 454 -1135
873 -1554 179 -179 365 -300 518 -337 118 -28 338 6 455 71 138 76 160 193 85
454 -64 223 -72 353 -28 433 42 75 112 91 284 64 103 -17 120 -17 143 -4 97
55 198 415 254 910 12 101 20 134 39 165 32 50 83 166 98 224 20 73 16 177 -9
242 -59 154 -263 267 -555 307 -72 10 -429 13 -521 4z"/>
<path d="M64360 29236 c0 -2 8 -10 18 -17 15 -13 16 -12 3 4 -13 16 -21 21
-21 13z"/>
<path d="M64440 29176 c0 -2 8 -10 18 -17 15 -13 16 -12 3 4 -13 16 -21 21
-21 13z"/>
<path d="M66840 28985 c-7 -9 -11 -17 -9 -20 3 -2 10 5 17 15 14 24 10 26 -8
5z"/>
<path d="M64800 28906 c0 -2 8 -10 18 -17 15 -13 16 -12 3 4 -13 16 -21 21
-21 13z"/>
<path d="M66739 28853 c-13 -16 -12 -17 4 -4 16 13 21 21 13 21 -2 0 -10 -8
-17 -17z"/>
<path d="M66659 28753 c-13 -16 -12 -17 4 -4 16 13 21 21 13 21 -2 0 -10 -8
-17 -17z"/>
<path d="M65000 28756 c0 -2 8 -10 18 -17 15 -13 16 -12 3 4 -13 16 -21 21
-21 13z"/>
<path d="M57893 28683 c9 -2 25 -2 35 0 9 3 1 5 -18 5 -19 0 -27 -2 -17 -5z"/>
<path d="M66514 28578 l-19 -23 23 19 c12 11 22 21 22 23 0 8 -8 2 -26 -19z"/>
<path d="M66429 28473 c-13 -16 -12 -17 4 -4 16 13 21 21 13 21 -2 0 -10 -8
-17 -17z"/>
<path d="M65640 28276 c0 -2 8 -10 18 -17 15 -13 16 -12 3 4 -13 16 -21 21
-21 13z"/>
<path d="M66100 28190 c-8 -5 -10 -10 -5 -10 6 0 17 5 25 10 8 5 11 10 5 10
-5 0 -17 -5 -25 -10z"/>
<path d="M66058 28173 c7 -3 16 -2 19 1 4 3 -2 6 -13 5 -11 0 -14 -3 -6 -6z"/>
<path d="M66018 28163 c7 -3 16 -2 19 1 4 3 -2 6 -13 5 -11 0 -14 -3 -6 -6z"/>
<path d="M49411 26979 c-103 -20 -270 -154 -343 -274 -88 -145 -116 -319 -83
-511 23 -132 19 -125 63 -104 43 21 193 71 270 91 52 13 54 14 47 44 -71 343
66 656 327 746 l53 18 -145 0 c-80 -1 -165 -5 -189 -10z"/>
<path d="M47960 26500 c-202 -8 -250 -21 -357 -102 -74 -55 -144 -158 -179
-265 -26 -80 -29 -100 -28 -218 1 -98 6 -150 22 -210 29 -107 110 -266 178
-349 52 -63 55 -70 44 -92 -7 -13 -24 -24 -39 -26 -21 -3 -16 -7 29 -22 73
-25 145 -61 201 -101 l47 -33 70 105 71 105 -52 63 c-61 74 -136 211 -165 305
-88 275 -39 543 128 710 58 58 90 79 200 128 14 6 18 10 10 9 -8 0 -89 -3
-180 -7z"/>
<path d="M51170 26499 c-175 -9 -260 -42 -358 -139 -55 -55 -120 -155 -108
-167 3 -3 70 -25 148 -48 79 -23 150 -45 159 -49 13 -6 20 4 34 46 58 179 207
328 357 357 37 7 33 8 -32 7 -41 0 -131 -4 -200 -7z"/>
<path d="M61528 25933 c12 -2 32 -2 45 0 12 2 2 4 -23 4 -25 0 -35 -2 -22 -4z"/>
<path d="M61418 25923 c7 -3 16 -2 19 1 4 3 -2 6 -13 5 -11 0 -14 -3 -6 -6z"/>
<path d="M46936 25214 c-175 -42 -330 -206 -374 -394 -73 -316 67 -684 340
-890 42 -32 102 -70 133 -84 l56 -27 -7 -67 c-4 -37 -10 -125 -13 -197 l-6
-130 -135 -6 c-154 -7 -211 -24 -302 -88 -138 -100 -215 -255 -225 -457 -19
-388 246 -776 607 -887 48 -15 97 -20 190 -21 l124 -2 28 -74 c16 -41 40 -100
53 -131 14 -31 25 -62 25 -68 0 -6 -16 -17 -35 -25 -20 -9 -45 -23 -58 -32
-21 -15 -19 -16 43 -9 80 8 344 51 385 63 18 6 29 15 27 23 -2 8 -26 72 -54
142 -41 102 -55 127 -67 122 -41 -16 -150 -17 -224 -1 -159 33 -289 106 -414
233 -169 173 -263 403 -263 640 1 247 111 444 300 536 108 53 212 66 341 41
l26 -5 7 171 c4 94 9 184 12 199 6 27 1 31 -72 70 -387 209 -582 730 -409
1087 62 128 162 223 277 264 l53 19 -155 0 c-98 0 -177 -6 -214 -15z"/>
<path d="M52455 25179 l54 -51 35 27 c20 15 62 38 93 51 l58 24 -147 0 -147 0
54 -51z"/>
<path d="M65655 25200 c-293 -52 -531 -201 -685 -429 -185 -275 -266 -696
-215 -1121 57 -467 11 -840 -145 -1191 -102 -228 -120 -292 -100 -356 22 -68
72 -135 146 -193 l73 -58 99 28 c171 48 494 100 618 100 30 0 32 3 52 73 49
163 56 223 57 442 l0 209 -139 18 c-124 15 -142 20 -174 45 -107 87 -156 316
-156 728 l0 240 42 100 c85 199 211 395 325 502 64 61 163 127 215 144 54 17
131 57 185 95 26 19 50 34 55 34 4 0 29 -43 56 -94 51 -100 146 -233 254 -356
144 -164 224 -329 281 -580 27 -117 51 -328 49 -430 -6 -418 60 -1036 128
-1192 18 -41 20 -42 154 -58 447 -54 669 -113 871 -231 179 -104 289 -267 447
-659 170 -424 408 -1222 547 -1839 36 -161 45 -192 54 -187 4 3 38 50 75 105
81 121 145 255 183 382 25 84 27 110 28 244 0 130 -3 160 -23 225 -45 143
-105 247 -209 363 -170 189 -238 359 -397 1000 -135 543 -172 644 -313 847
-33 47 -131 165 -233 280 -181 204 -242 321 -242 465 -1 44 5 100 12 125 12
46 55 164 69 190 4 8 17 47 27 85 16 58 19 104 19 265 -1 178 -3 205 -29 315
-31 133 -96 307 -158 423 -274 514 -762 837 -1378 912 -134 16 -409 11 -525
-10z"/>
<path d="M50040 25193 c0 -6 28 -14 62 -17 34 -4 130 -27 213 -51 776 -225
1453 -825 1841 -1630 l74 -154 190 95 190 95 -34 67 c-142 282 -336 544 -590
797 -324 324 -685 552 -1086 688 -96 33 -304 84 -395 97 -105 15 -465 25 -465
13z"/>
<path d="M21390 22973 c-52 -7 -230 -34 -395 -59 -446 -67 -652 -102 -730
-125 -234 -69 -393 -224 -441 -426 -24 -101 -15 -317 19 -443 52 -197 166
-456 280 -632 l52 -81 17 85 c61 304 236 573 480 735 159 106 335 166 575 198
190 25 257 48 333 113 112 95 120 267 21 477 -34 74 -98 175 -108 174 -5 -1
-51 -8 -103 -16z"/>
<path d="M67432 18940 c-59 -181 -108 -451 -118 -642 -8 -162 -25 -149 151
-113 120 25 213 53 291 86 l42 17 -51 99 c-28 54 -95 193 -149 308 -54 116
-109 232 -121 260 l-24 49 -21 -64z"/>
<path d="M10936 17408 c13 -103 67 -1139 83 -1618 20 -579 21 -1874 2 -2275
-44 -958 -122 -1551 -272 -2067 -130 -453 -237 -1026 -319 -1708 -27 -227 -34
-289 -60 -550 -13 -126 -58 -670 -65 -790 -3 -52 -10 -156 -15 -230 -39 -562
-72 -1436 -86 -2257 l-6 -383 40 0 41 0 6 -57 c47 -455 95 -696 164 -828 14
-27 27 -53 29 -57 2 -5 -1038 -8 -2311 -8 -2229 0 -2315 -1 -2330 -18 -22 -24
-21 -65 1 -85 17 -16 2406 -17 34180 -17 l34161 0 15 22 c20 28 20 49 2 74
-14 19 -58 19 -2891 24 l-2878 5 38 25 c66 43 80 70 84 168 2 47 -2 118 -9
158 l-13 72 -36 -5 c-33 -5 -144 -32 -480 -119 -453 -116 -771 -108 -1098 27
l-71 30 -169 -41 c-92 -22 -192 -52 -220 -66 -69 -33 -70 -57 -8 -120 40 -40
92 -70 215 -122 18 -8 -125 -11 -525 -11 -429 0 -546 3 -531 12 86 55 106 94
106 209 0 72 -14 195 -22 204 -6 6 -193 -37 -413 -95 -267 -70 -426 -100 -580
-108 -194 -10 -421 28 -607 103 l-87 35 -168 -41 c-171 -42 -248 -71 -267
-102 -26 -43 69 -128 204 -182 l85 -35 -11605 2 -11605 2 -3 143 -3 142 -427
0 c-235 0 -457 5 -494 10 -124 18 -230 67 -324 148 -45 39 -114 146 -145 225
-75 195 -90 368 -60 692 21 219 81 927 117 1382 10 117 21 210 26 207 4 -3
108 15 230 40 123 25 592 119 1043 211 451 91 953 192 1115 225 162 33 619
125 1015 205 396 80 853 172 1015 205 1289 260 1738 351 1760 358 23 8 26 17
42 121 9 62 18 115 21 117 2 2 3346 4 7432 4 l7428 0 412 243 413 242 -15334
3 -15334 2 -108 -83 c-59 -45 -203 -154 -319 -242 l-213 -160 4555 -3 c3885
-2 4555 -4 4555 -16 0 -8 -4 -58 -9 -112 -6 -55 -12 -139 -16 -189 -3 -49 -21
-268 -40 -485 -19 -217 -37 -426 -40 -465 -3 -38 -7 -97 -10 -130 -21 -239
-65 -754 -70 -820 -3 -44 -21 -262 -40 -485 -19 -223 -37 -434 -40 -470 -2
-36 -12 -148 -21 -249 -26 -297 4 -528 91 -708 75 -153 154 -226 330 -300 20
-8 -13290 -17 -13312 -8 -7 2 -13 15 -13 27 0 41 -55 142 -100 182 -58 52
-124 80 -265 111 -121 27 -291 88 -402 144 -80 40 -261 162 -294 198 -19 19
-65 131 -149 353 -67 179 -139 370 -160 425 -21 55 -86 224 -144 375 -167 438
-342 887 -563 1439 -112 282 -201 517 -196 521 4 4 91 74 193 155 944 756
1504 1371 1684 1848 68 181 73 343 16 502 -210 585 -966 1353 -2245 2280 -174
127 -615 429 -770 529 l-106 68 20 22 c25 27 51 88 51 121 0 14 -23 84 -51
156 -52 135 -63 191 -77 384 l-7 99 -215 67 c-497 153 -1006 327 -1285 439
-238 95 -321 157 -424 315 -54 81 -138 249 -161 318 -60 185 49 -454 126 -737
167 -614 423 -1147 771 -1608 l73 -97 -63 -20 c-212 -70 -626 -167 -872 -205
-371 -58 -398 -60 -695 -61 -247 0 -294 2 -349 18 -114 33 -173 73 -191 133
-8 26 -8 27 -9 5 -2 -40 48 -247 85 -355 41 -119 147 -340 214 -446 26 -41 82
-138 125 -215 161 -288 239 -420 329 -557 l31 -48 1532 0 c1054 0 1540 -3
1560 -11 15 -5 45 -27 66 -47 61 -59 67 -96 67 -396 l1 -261 87 -34 c206 -79
362 -176 362 -225 0 -10 -111 -153 -247 -318 l-247 -300 -14 29 -14 29 -46
-23 -45 -23 -905 0 c-497 0 -902 -3 -900 -7 2 -5 40 -64 86 -132 146 -222 211
-367 262 -591 48 -211 138 -463 256 -719 24 -51 42 -97 39 -101 -3 -4 -112
-136 -242 -293 -229 -275 -242 -288 -362 -377 -156 -117 -322 -276 -352 -337
-18 -37 -20 -51 -12 -73 6 -15 110 -206 232 -423 121 -218 221 -399 221 -402
0 -3 -209 -4 -465 -3 l-465 3 -3 1725 -2 1725 -352 3 -353 2 0 -1730 0 -1730
-634 0 -635 0 -20 -26 c-17 -22 -21 -40 -20 -102 1 -65 5 -78 25 -99 l23 -23
631 0 630 0 0 -394 0 -394 -67 -7 c-833 -79 -1517 -378 -1731 -757 l-27 -48
-1067 0 c-1055 0 -1068 0 -1068 20 0 47 -44 133 -97 190 -71 77 -144 112 -298
145 -260 56 -558 183 -755 323 -91 64 -298 257 -288 268 3 2 23 6 44 7 39 2
39 2 36 42 -27 414 -30 1080 -7 1625 8 195 17 384 20 420 2 36 7 106 10 155 6
105 33 495 40 575 2 30 7 87 10 125 17 222 81 869 116 1175 59 529 88 758 188
1480 69 502 123 938 170 1375 22 204 45 413 51 465 15 133 67 689 79 845 6 72
17 213 26 315 40 497 61 809 100 1515 30 542 69 1728 57 1740 -2 2 -23 -10
-47 -26 -82 -55 -290 -148 -445 -200 -444 -146 -971 -219 -1582 -219 -890 0
-1633 167 -2003 450 -35 28 -66 50 -69 50 -3 0 -3 -15 0 -32z m1474 -8478 c79
-814 192 -1636 349 -2555 51 -296 132 -740 152 -835 l11 -53 74 6 73 7 5 -43
c3 -23 13 -105 22 -182 17 -153 55 -375 81 -470 13 -48 51 -140 91 -218 2 -4
-103 -6 -233 -5 l-237 3 -18 58 c-49 159 -161 244 -380 291 -371 79 -691 240
-936 469 -46 43 -84 83 -84 88 0 6 27 8 65 5 74 -6 67 -17 85 119 92 671 380
1904 731 3125 127 444 122 428 125 410 2 -8 12 -107 24 -220z m27047 68 c-3
-8 -6 -5 -6 6 -1 11 2 17 5 13 3 -3 4 -12 1 -19z m-10 -105 c-3 -10 -5 -4 -5
12 0 17 2 24 5 18 2 -7 2 -21 0 -30z m-10 -100 c-3 -10 -5 -4 -5 12 0 17 2 24
5 18 2 -7 2 -21 0 -30z m-10 -110 c-3 -10 -5 -4 -5 12 0 17 2 24 5 18 2 -7 2
-21 0 -30z m-10 -105 c-3 -7 -5 -2 -5 12 0 14 2 19 5 13 2 -7 2 -19 0 -25z
m-10 -100 c-3 -8 -6 -5 -6 6 -1 11 2 17 5 13 3 -3 4 -12 1 -19z m-20 -315 c-3
-10 -5 -4 -5 12 0 17 2 24 5 18 2 -7 2 -21 0 -30z m-10 -115 c-3 -7 -5 -2 -5
12 0 14 2 19 5 13 2 -7 2 -19 0 -25z m-10 -105 c-3 -10 -5 -4 -5 12 0 17 2 24
5 18 2 -7 2 -21 0 -30z m-10 -95 c-3 -8 -6 -5 -6 6 -1 11 2 17 5 13 3 -3 4
-12 1 -19z m-10 -115 c-3 -10 -5 -4 -5 12 0 17 2 24 5 18 2 -7 2 -21 0 -30z
m-17062 -415 c230 -377 928 -1377 1367 -1960 70 -94 94 -118 113 -118 27 0 23
15 51 -185 30 -221 83 -393 137 -452 l20 -23 -949 0 -950 0 -49 76 c-225 344
-820 617 -1545 709 -69 9 -149 19 -178 23 l-53 7 0 390 0 390 539 3 540 2 158
-280 c87 -154 161 -280 166 -280 18 0 83 78 107 129 36 78 35 193 -3 306 -85
255 -105 548 -54 804 32 159 54 209 114 249 161 110 411 270 420 271 6 1 28
-27 49 -61z m42618 -2735 c-23 -2 -64 -2 -90 0 -26 2 -7 3 42 3 50 0 71 -1 48
-3z m2845 0 c-27 -2 -69 -2 -95 0 -27 2 -5 3 47 3 52 0 74 -1 48 -3z"/>
<path d="M26366 16882 c-30 -92 -109 -336 -176 -542 -67 -206 -155 -476 -195
-600 -87 -265 -303 -933 -337 -1039 l-23 -74 -400 7 c-220 3 -481 9 -580 12
l-180 6 90 -45 c50 -25 110 -63 135 -85 l45 -39 465 -11 c255 -6 467 -8 470
-4 4 4 64 185 134 402 70 217 161 496 201 620 40 124 126 387 190 585 64 198
159 489 211 648 52 158 94 289 94 291 0 2 -20 11 -44 19 l-45 15 -55 -166z"/>
<path d="M22282 15868 c3 -68 7 -186 7 -264 1 -121 3 -143 19 -156 41 -36 520
-307 860 -487 l173 -91 127 -15 c172 -20 169 -20 192 18 52 83 93 338 74 456
l-9 54 -55 20 c-109 40 -698 276 -835 335 -77 33 -230 101 -340 152 -110 50
-204 94 -210 96 -7 3 -8 -38 -3 -118z"/>
<path d="M45669 12480 c-217 -27 -404 -161 -495 -355 -224 -475 159 -1115 741
-1241 90 -20 265 -19 352 1 299 69 493 321 493 639 0 438 -379 870 -834 950
-61 11 -194 14 -257 6z"/>
</g>
</svg>
